<svg width="512" height="512" viewBox="0 0 512 512" fill="none" xmlns="http://www.w3.org/2000/svg">
  <defs>
    <linearGradient id="bgB" x1="52" y1="52" x2="460" y2="460" gradientUnits="userSpaceOnUse">
      <stop stop-color="#08122B"/>
      <stop offset="1" stop-color="#132B52"/>
    </linearGradient>
    <linearGradient id="barsB" x1="170" y1="340" x2="350" y2="176" gradientUnits="userSpaceOnUse">
      <stop stop-color="#38BDF8"/>
      <stop offset="1" stop-color="#22C55E"/>
    </linearGradient>
    <filter id="softGlowB" x="146" y="136" width="232" height="248" filterUnits="userSpaceOnUse" color-interpolation-filters="sRGB">
      <feGaussianBlur stdDeviation="7" result="blur"/>
      <feBlend in="SourceGraphic" in2="blur" mode="screen"/>
    </filter>
  </defs>

  <rect x="28" y="28" width="456" height="456" rx="104" fill="url(#bgB)"/>

  <rect x="96" y="96" width="320" height="320" rx="34" stroke="#2D467C" stroke-width="12"/>
  <line x1="256" y1="96" x2="256" y2="416" stroke="#2D467C" stroke-width="9"/>
  <circle cx="256" cy="256" r="54" stroke="#2D467C" stroke-width="9"/>

  <g filter="url(#softGlowB)">
    <rect x="168" y="296" width="30" height="72" rx="10" fill="url(#barsB)"/>
    <rect x="216" y="248" width="30" height="120" rx="10" fill="url(#barsB)"/>
    <rect x="264" y="206" width="30" height="162" rx="10" fill="url(#barsB)"/>
    <rect x="312" y="168" width="30" height="200" rx="10" fill="url(#barsB)"/>
  </g>

  <path d="M170 188L220 214L268 184L334 148" stroke="#7DD3FC" stroke-width="10" stroke-linecap="round" stroke-linejoin="round"/>
  <circle cx="170" cy="188" r="8" fill="#7DD3FC"/>
  <circle cx="220" cy="214" r="8" fill="#60A5FA"/>
  <circle cx="268" cy="184" r="8" fill="#34D399"/>
  <circle cx="334" cy="148" r="8" fill="#22C55E"/>

  <circle cx="376" cy="132" r="34" fill="#0E1D3F" stroke="#38BDF8" stroke-width="6"/>
  <path d="M360 146L368 124L376 132L384 124L392 146H360Z" fill="#7DD3FC"/>
  <path d="M364 122L376 110L388 122" stroke="#7DD3FC" stroke-width="5" stroke-linecap="round" stroke-linejoin="round"/>
  <circle cx="376" cy="158" r="6" fill="#22C55E"/>
</svg>
