<svg width="512" height="512" viewBox="0 0 512 512" fill="none" xmlns="http://www.w3.org/2000/svg">
  <defs>
    <linearGradient id="bg3" x1="52" y1="52" x2="460" y2="460" gradientUnits="userSpaceOnUse">
      <stop stop-color="#101E42"/>
      <stop offset="1" stop-color="#0B1735"/>
    </linearGradient>
    <linearGradient id="fd" x1="152" y1="136" x2="352" y2="384" gradientUnits="userSpaceOnUse">
      <stop stop-color="#60A5FA"/>
      <stop offset="1" stop-color="#22C55E"/>
    </linearGradient>
  </defs>

  <rect x="32" y="32" width="448" height="448" rx="104" fill="url(#bg3)"/>

  <path d="M144 142H348" stroke="#2A3F75" stroke-width="10" stroke-linecap="round"/>
  <path d="M144 370H348" stroke="#2A3F75" stroke-width="10" stroke-linecap="round"/>

  <path d="M168 164V348" stroke="url(#fd)" stroke-width="24" stroke-linecap="round"/>
  <path d="M168 172H304" stroke="url(#fd)" stroke-width="24" stroke-linecap="round"/>
  <path d="M168 258H280" stroke="url(#fd)" stroke-width="24" stroke-linecap="round"/>

  <path d="M314 182V330" stroke="url(#fd)" stroke-width="24" stroke-linecap="round"/>
  <path d="M314 182C376 182 390 219 390 256C390 293 376 330 314 330" stroke="url(#fd)" stroke-width="24" stroke-linecap="round" stroke-linejoin="round"/>

  <path d="M188 318L232 286L268 304L330 236" stroke="#7DD3FC" stroke-width="8" stroke-linecap="round" stroke-linejoin="round"/>
  <circle cx="188" cy="318" r="6" fill="#7DD3FC"/>
  <circle cx="232" cy="286" r="6" fill="#7DD3FC"/>
  <circle cx="268" cy="304" r="6" fill="#7DD3FC"/>
  <circle cx="330" cy="236" r="6" fill="#7DD3FC"/>
</svg>
